# xmcd
#
# Track frame offsets:
#	150
#	17024
#	32264
#	46620
#	60965
#	74857
#	94649
#	110304
#	131567
#	151041
#	164573
#	179283
#	191143
#	202921
#	219531
#
# Disc length: 3179 seconds
#
# Revision: 0
# Processed by: cddbd v1.5.2PL0 Copyright (c) Steve Scherf et al.
# Submitted via: dBpowerAMP V4.0
#
DISCID=c10c690f
DTITLE=TOCA DO VALE - DOIDIM DOIDIM
DYEAR=2007
DGENRE=FORRO
TTITLE0=TA TA
TTITLE1=DOIDIM DOIDIM
TTITLE2=BEBER E RAPARIGAR
TTITLE3=BEBENDO E RAPARIGANDO
TTITLE4=COMO UM ANJO
TTITLE5=A GOSTOSONA
TTITLE6=QUANDO A MULHER NAO VALE NADA
TTITLE7=BEBER DEMAIS
TTITLE8=JARDIM DOS ANIMAIS
TTITLE9=CLONE DE LAGRIMAS
TTITLE10=QUE PESCAR QUE NADA
TTITLE11=BEBO HOJE
TTITLE12=TELEFONE MUDO
TTITLE13=MENININHA MEU AMOR
TTITLE14=PORTEIRO INGRATO
EXTD=
EXTT0=
EXTT1=
EXTT2=
EXTT3=
EXTT4=
EXTT5=
EXTT6=
EXTT7=
EXTT8=
EXTT9=
EXTT10=
EXTT11=
EXTT12=
EXTT13=
EXTT14=
PLAYORDER=
